<?xml version="1.0" standalone="no"?><!DOCTYPE svg PUBLIC "-//W3C//DTD SVG 1.1//EN" "http://www.w3.org/Graphics/SVG/1.1/DTD/svg11.dtd"><svg t="1630217211953" class="icon" viewBox="0 0 1024 1024" version="1.1" xmlns="http://www.w3.org/2000/svg" p-id="6870" xmlns:xlink="http://www.w3.org/1999/xlink" width="200" height="200"><defs><style type="text/css"></style></defs><path d="M170.666667 68.266667h682.666666a136.533333 136.533333 0 0 1 136.533334 136.533333v68.266667a68.266667 68.266667 0 0 1-68.266667 68.266666H102.4a68.266667 68.266667 0 0 1-68.266667-68.266666V204.8a136.533333 136.533333 0 0 1 136.533334-136.533333z" fill="#FFAA44" p-id="6871"></path><path d="M136.533333 409.6h750.933334a68.266667 68.266667 0 0 1 68.266666 68.266667v341.333333a136.533333 136.533333 0 0 1-136.533333 136.533333H204.8a136.533333 136.533333 0 0 1-136.533333-136.533333V477.866667a68.266667 68.266667 0 0 1 68.266666-68.266667z" fill="#FF7744" p-id="6872"></path><path d="M392.533333 546.133333h238.933334a51.2 51.2 0 0 1 0 102.4h-238.933334a51.2 51.2 0 0 1 0-102.4z" fill="#FFFFFF" p-id="6873"></path></svg>