<?xml version="1.0" standalone="no"?><!DOCTYPE svg PUBLIC "-//W3C//DTD SVG 1.1//EN" "http://www.w3.org/Graphics/SVG/1.1/DTD/svg11.dtd"><svg t="1630217177456" class="icon" viewBox="0 0 1024 1024" version="1.1" xmlns="http://www.w3.org/2000/svg" p-id="6006" data-spm-anchor-id="a313x.7781069.0.i14" xmlns:xlink="http://www.w3.org/1999/xlink" width="200" height="200"><defs><style type="text/css"></style></defs><path d="M808.614 221.78c-12.1-13.92-30.04-22.64-49.98-22.38l-12.12 0.18-3.78 0.06c-9.9 17.8-19.76 36.94-29.56 57.36 13.54 0.7 26.9 6.24 37.24 16.58 3.88 3.9 7.14 8.22 9.66 12.8 1.88 3.42 3.38 7 4.5 10.66 1.34 4.34 2.12 8.8 2.4 13.3 0.72 11.2-1.88 22.542-7.74 32.48-2.4 4.04-5.34 7.84-8.82 11.3-22.2 22.26-58.32 22.26-80.52 0a57.154 57.154 0 0 1-13.24-20.7 57.03 57.03 0 0 1 1.56-42.98c0.42-7.28 2.16-14.54 5.3-21.5 10.98-24.38 22.12-47.3 33.36-68.68l-159.62 2.22a90.41 90.41 0 0 0-62.9 26.58L19.052 684.36c-25.4 25.4-25.4 66.6 0 92l228.58 228.6c25.4 25.38 66.6 25.38 92 0l455.3-455.3a91.3 91.3 0 0 0 26.6-62.9l2.4-173 0.62-45 0.04-3.38c0.26-16.68-5.818-32-15.978-43.6z" fill="#FF8354" p-id="6007" data-spm-anchor-id="a313x.7781069.0.i12" class="selected"></path><path d="M821.534 446.76a91.3 91.3 0 0 1-26.6 62.9l-455.3 455.3c-25.4 25.38-66.6 25.38-92 0L19.052 736.36a64.74 64.74 0 0 1-15.894-26c-7.244 22.492-1.958 48.146 15.894 66l228.58 228.6c25.4 25.38 66.6 25.38 92 0l455.3-455.3a91.3 91.3 0 0 0 26.6-62.9v-40z" fill="#E0734A" p-id="6008" data-spm-anchor-id="a313x.7781069.0.i15" class=""></path><path d="M742.732 199.64c-9.9 17.8-19.76 36.94-29.56 57.36a56.96 56.96 0 0 0-8.86 0.22 56.74 56.74 0 0 0-34.42 16.36c-5.02 5-8.92 10.74-11.68 16.86 0.42-7.28 2.16-14.54 5.3-21.5 10.98-24.38 22.12-47.3 33.36-68.68l45.86-0.62z" fill="#FF8354" p-id="6009"></path><path d="M742.732 199.64c-9.9 17.8-19.76 36.94-29.56 57.36a56.96 56.96 0 0 0-8.86 0.22 56.74 56.74 0 0 0-34.42 16.36c-5.02 5-8.92 10.74-11.68 16.86 0.42-7.28 2.16-14.54 5.3-21.5 10.98-24.38 22.12-47.3 33.36-68.68l45.86-0.62z" fill="#FF8354" p-id="6010"></path><path d="M19.052 724.36l455.3-455.3a90.41 90.41 0 0 1 62.9-26.58l159.62-2.22 45.86-0.62 3.78-0.06 12.12-0.18c19.94-0.26 37.88 8.46 49.98 22.38a64.428 64.428 0 0 1 15.55 35.148l0.388-28.168 0.04-3.38c0.26-16.68-5.82-32-15.98-43.6-12.1-13.92-30.04-22.64-49.98-22.38l-12.12 0.18-3.78 0.06-45.86 0.62-159.62 2.22a90.41 90.41 0 0 0-62.9 26.58L19.052 684.36c-17.854 17.854-23.138 43.508-15.894 66a64.754 64.754 0 0 1 15.894-26z" fill="#FFAC8C" p-id="6011" data-spm-anchor-id="a313x.7781069.0.i13" class=""></path><path d="M288.922 920.222l-185.152-185.152a17.272 17.272 0 0 1 0-24.424L416.596 397.82a17.272 17.272 0 0 1 24.424 0l185.152 185.152a17.272 17.272 0 0 1 0 24.424L313.346 920.222a17.268 17.268 0 0 1-24.424 0z" fill="#FFAC8C" p-id="6012"></path><path d="M383.664 564.346c27.022 26.466 19.852 55.392 19.852 55.392s28.012-6.976 55.032 19.49 24.834 69.06 4.19 90.136c-20.644 21.076-38.676 32.928-109.948 27.206-45.158-3.626-72.446-11.082-72.446-11.082s-8.02-27.128-12.58-72.2c-7.198-71.138 4.278-89.412 24.92-110.488 20.642-21.076 63.958-24.92 90.98 1.546z" fill="#FF8354" p-id="6013"></path><path d="M986.154 38.68c-31.14-31.14-65.28-43.58-101.48-36.94-42.92 7.84-87.18 43.4-131.56 105.7-15.18 21.32-30.3 45.56-45.28 72.54-3.66 6.6-7.3 13.36-10.96 20.28l45.86-0.62c52.16-93.92 104.74-150.46 149.14-158.56 22.82-4.18 44.4 4.3 66 25.88 21.16 21.16 29.32 41.92 24.92 63.4-8.6 42.06-64.88 90.7-158.24 138.4-18.54 9.48-38.56 18.92-59.98 28.28-12.24 5.34-24.94 10.66-38.08 15.94-12 4.82-20.34-2.52-22.6-4.88-2.26-2.36-9.22-10.96-3.92-22.72 4.38-9.72 8.78-19.18 13.2-28.38a56.96 56.96 0 0 0-8.86 0.22 56.74 56.74 0 0 0-34.42 16.36c-5.02 5-8.92 10.74-11.68 16.86-0.96 16.46 4.88 32.9 16.82 45.34 11.7 12.22 27.5 18.72 43.66 18.72 7.62 0 15.32-1.44 22.7-4.4 6.04-2.42 11.98-4.86 17.84-7.28 22.9-9.56 44.5-19.24 64.7-29.06 32.32-15.68 61.1-31.64 86.1-47.76 65.62-42.3 103.28-85.24 111.94-127.62 7.198-35.18-4.842-68.74-35.82-99.7z" fill="#6770E6" p-id="6014"></path></svg>